<svg width="24" height="24" viewBox="0 0 24 24" fill="none" xmlns="http://www.w3.org/2000/svg">
<path d="M11.6964 2.5384C11.8954 2.4872 12.1046 2.4872 12.3036 2.5384C12.4068 2.56497 12.5074 2.60601 12.6024 2.66018L19.8881 6.81003C19.985 6.86523 20.072 6.93283 20.1484 7.00982H20.149C20.1541 7.0149 20.1588 7.02059 20.1638 7.02574C20.3763 7.24799 20.4999 7.54601 20.5 7.86153V16.14C20.4999 16.5743 20.2664 16.976 19.8881 17.1915L12.6024 21.3414C12.5075 21.3954 12.4067 21.4342 12.3036 21.4608V21.462C12.2685 21.471 12.233 21.478 12.1974 21.4838C12.1888 21.4853 12.18 21.4862 12.1713 21.4874C12.1329 21.4928 12.0944 21.4968 12.0557 21.4986C12.0455 21.4991 12.0352 21.4996 12.0249 21.4998C11.9863 21.5006 11.9478 21.4991 11.9093 21.4963C11.8974 21.4954 11.8856 21.4945 11.8737 21.4933C11.8367 21.4894 11.8 21.484 11.7635 21.4767C11.7499 21.4741 11.7366 21.471 11.7231 21.4679C11.7143 21.4658 11.7052 21.4643 11.6964 21.462V21.4602C11.6188 21.4402 11.5421 21.4148 11.4688 21.3792L11.3976 21.3414L4.11188 17.1915C3.73363 16.976 3.50006 16.5743 3.5 16.14V7.86153C3.5 7.74914 3.51591 7.63886 3.54566 7.53348C3.54693 7.52894 3.54845 7.52447 3.54979 7.51993C3.55489 7.50262 3.56053 7.48549 3.56642 7.46848C3.56861 7.462 3.57061 7.45541 3.57292 7.44899C3.5779 7.43525 3.58348 7.42169 3.58895 7.4082C3.60382 7.37134 3.62034 7.3352 3.63873 7.30004C3.6431 7.29169 3.64778 7.28345 3.65239 7.27522C3.67188 7.23994 3.69289 7.2055 3.71584 7.17233C3.72082 7.16513 3.7261 7.15817 3.73126 7.15109C3.75567 7.11737 3.78159 7.08469 3.80952 7.05352C3.87758 6.97768 3.95566 6.91001 4.04254 6.85258L4.11188 6.81003L11.3976 2.66018C11.4926 2.60601 11.5932 2.56497 11.6964 2.5384ZM4.41721 16.6684L11.6964 20.8142V16.8321C10.1258 16.7355 8.7578 15.8956 7.94149 14.66L4.41721 16.6684ZM16.0573 14.6606C15.2409 15.8956 13.8739 16.7356 12.3036 16.8321V20.8142L19.5822 16.6684L16.0573 14.6606ZM8.16741 10.1661C7.89954 10.7212 7.75 11.3436 7.75 12.0008C7.75 12.7184 7.92917 13.3944 8.24506 13.9867C8.28538 14.0622 8.32794 14.1363 8.37256 14.209C9.06975 15.3447 10.2883 16.1266 11.6964 16.2257V12.1763L8.16741 10.1661ZM12.3036 12.1763V16.2257C13.7092 16.1268 14.9255 15.3473 15.6233 14.2149C15.6813 14.1206 15.7351 14.0237 15.7858 13.9247C16.0816 13.3472 16.25 12.6938 16.25 12.0008C16.25 11.3434 16.0994 10.7213 15.8314 10.1661L12.3036 12.1763ZM4.10714 16.1471L7.63974 14.1345C7.32209 13.4907 7.14286 12.7667 7.14286 12.0008C7.14286 11.2343 7.32166 10.5094 7.63974 9.86528L4.10714 7.85324V16.1471ZM16.3597 9.86528C16.6779 10.5095 16.8571 11.2342 16.8571 12.0008C16.8571 12.7668 16.6774 13.4906 16.3597 14.1345L19.8923 16.1471C19.8923 16.1448 19.8929 16.1423 19.8929 16.14V7.86153C19.8929 7.85881 19.8923 7.85596 19.8923 7.85324L16.3597 9.86528ZM12 7.76402C11.8979 7.76402 11.7967 7.76875 11.6964 7.77583C10.3519 7.87043 9.17982 8.58729 8.46977 9.64067L12 11.6514L15.5296 9.64006C14.7666 8.50855 13.4705 7.76402 12 7.76402ZM4.41721 7.33254L7.9421 9.3398C8.75853 8.10502 10.1264 7.26536 11.6964 7.16882V3.18681L4.41721 7.33254ZM12.3036 7.16882C13.8735 7.26536 15.2409 8.10514 16.0573 9.3398L19.5816 7.33254L12.3036 3.18681V7.16882Z" stroke="#9F9DA9"/>
</svg>
