<svg width="640" height="380" viewBox="0 0 640 380" fill="none" xmlns="http://www.w3.org/2000/svg">
  <rect width="640" height="380" rx="20" fill="#FFDDE7"/>
  <rect x="48" y="52" width="246" height="130" rx="12" fill="#fff" stroke="#000" stroke-width="6"/>
  <rect x="74" y="84" width="52" height="20" fill="#000"/>
  <rect x="142" y="84" width="124" height="20" fill="#000"/>
  <rect x="74" y="118" width="164" height="14" fill="#000"/>
  <rect x="74" y="142" width="124" height="14" fill="#000"/>
  <rect x="334" y="52" width="258" height="130" rx="12" fill="#FFDD00" stroke="#000" stroke-width="6"/>
  <circle cx="384" cy="116" r="24" fill="#fff" stroke="#000" stroke-width="6"/>
  <circle cx="546" cy="116" r="24" fill="#fff" stroke="#000" stroke-width="6"/>
  <line x1="408" y1="116" x2="522" y2="116" stroke="#000" stroke-width="6"/>
  <rect x="48" y="216" width="544" height="116" rx="14" fill="#fff" stroke="#000" stroke-width="6"/>
  <rect x="84" y="256" width="130" height="36" rx="8" fill="#B9B6FF" stroke="#000" stroke-width="4"/>
  <rect x="254" y="256" width="130" height="36" rx="8" fill="#7CEB94" stroke="#000" stroke-width="4"/>
  <rect x="424" y="256" width="130" height="36" rx="8" fill="#FF7A1A" stroke="#000" stroke-width="4"/>
</svg>
