<svg width="24" height="24" viewBox="0 0 24 24" fill="none" xmlns="http://www.w3.org/2000/svg">
<path d="M20 19.7715C20 19.7715 19.9998 21 18.611 21H5.38899C4.00018 21 4 19.7715 4 19.7715H20ZM4 11.6323C4 11.4742 4.19478 11.395 4.30884 11.5069L11.3314 18.3985C11.4452 18.5104 11.3645 18.7014 11.2036 18.7015H4.18107C4.08155 18.7015 4.00008 18.6215 4 18.5238V11.6323ZM19.6912 11.5069C19.8052 11.3951 20 11.4742 20 11.6323V18.5238C19.9999 18.6214 19.9184 18.7015 19.8189 18.7015H12.7964C12.6353 18.7015 12.5547 18.5104 12.6686 18.3985L19.6912 11.5069ZM11.2036 3C11.3646 3.00011 11.4453 3.19118 11.3314 3.30308L4.30884 10.1946C4.19483 10.3064 4.00014 10.2272 4 10.0692V3.17769C4 3.07998 4.08151 3 4.18107 3H11.2036ZM19.8189 3C19.9184 3.00005 20 3.08001 20 3.17769V10.0692C19.9999 10.2272 19.8052 10.3063 19.6912 10.1946L12.6686 3.30308C12.5546 3.19115 12.6353 3 12.7964 3H19.8189Z" fill="#9F9DA9"/>
</svg>
